<svg xmlns="http://www.w3.org/2000/svg" viewBox="0 0 1000 1000" width="1500" height="1500">
	<style>
		tspan { white-space:pre }
		.shp0 { fill: #173c5e } 
		.shp1 { fill: #f6f6f6 } 
		.shp2 { fill: #f2f291 } 
		.shp3 { fill: #c6c6c6 } 
		.shp4 { fill: #706f6f } 
		.shp5 { fill: #ffc20f } 
		.shp6 { fill: #3c3c3b } 
		.shp7 { fill: #ffd05a } 
		.shp8 { fill: #f79f4f } 
		.shp9 { fill: #9cd2f7 } 
		.shp10 { fill: #f08b1f } 
		.shp11 { fill: #f94700 } 
		.shp12 { fill: #6b0e0a } 
		.shp13 { fill: #f5f5f5 } 
	</style>
	<g id="Background">
		<path id="Background_2" class="shp0" d="M500.75 831.75C317.15 831.75 168.75 683.35 168.75 499.75C168.75 316.15 317.15 167.75 500.75 167.75C684.35 167.75 832.75 316.15 832.75 499.75C832.75 683.35 684.35 831.75 500.75 831.75Z" />
	</g>
	<g id="Constellation">
		<g id="Constelation">
			<g id="Layer">
				<path id="Layer" class="shp1" d="M488.7 328.7L713.16 349.74L695.34 108.46L684.78 109.24L701.68 338.04L493.68 318.54L493.69 318.3L221.14 307.98L220.87 315.11L219.21 316.12L350.35 532.69L359.4 527.21L233.35 319.04L488.7 328.7Z" />
				<path id="Layer" class="shp2" d="M712.64 117.83C712.64 130.3 702.53 140.41 690.06 140.41C677.59 140.41 667.48 130.3 667.48 117.83C667.48 105.36 677.59 95.25 690.06 95.25C702.53 95.25 712.64 105.36 712.64 117.83Z" />
				<path id="Layer" class="shp2" d="M738.04 343.89C738.04 360.8 724.33 374.51 707.42 374.51C690.51 374.51 676.8 360.8 676.8 343.89C676.8 326.98 690.51 313.27 707.42 313.27C724.33 313.27 738.04 326.98 738.04 343.89Z" />
				<path id="Layer" class="shp2" d="M516.86 323.59C516.86 336.5 506.4 346.96 493.49 346.96C480.58 346.96 470.12 336.5 470.12 323.59C470.12 310.68 480.58 300.22 493.49 300.22C506.4 300.22 516.86 310.68 516.86 323.59Z" />
				<path id="Layer" class="shp2" d="M378.24 529.95C378.24 542.86 367.78 553.32 354.87 553.32C341.96 553.32 331.5 542.86 331.5 529.95C331.5 517.04 341.96 506.58 354.87 506.58C367.78 506.58 378.24 517.04 378.24 529.95Z" />
				<path id="Layer" class="shp2" d="M248.78 323.59C248.78 338.97 236.32 351.43 220.94 351.43C205.56 351.43 193.1 338.97 193.1 323.59C193.1 308.22 205.56 295.75 220.94 295.75C236.31 295.75 248.78 308.22 248.78 323.59Z" />
			</g>
			<g id="Layer">
				<path id="Layer" class="shp1" d="M820.14 606.43L620.39 558.47L622.86 548.18L810.29 593.18L817.86 459.82L828.43 460.42L820.14 606.43Z" />
				<path id="Layer" class="shp2" d="M655.49 553.32C655.49 570.23 641.78 583.94 624.87 583.94C607.96 583.94 594.25 570.23 594.25 553.32C594.25 536.41 607.96 522.7 624.87 522.7C641.79 522.71 655.49 536.41 655.49 553.32Z" />
				<path id="Layer" class="shp2" d="M838.58 599.81C838.58 612.72 828.12 623.18 815.21 623.18C802.3 623.18 791.84 612.72 791.84 599.81C791.84 586.9 802.3 576.44 815.21 576.44C828.12 576.44 838.58 586.9 838.58 599.81Z" />
				<path id="Layer" class="shp2" d="M846.52 460.12C846.52 473.03 836.06 483.49 823.15 483.49C810.24 483.49 799.78 473.03 799.78 460.12C799.78 447.21 810.24 436.75 823.15 436.75C836.05 436.75 846.52 447.21 846.52 460.12Z" />
			</g>
		</g>
		<g id="Telescope">
			<g id="Layer">
				<path id="Layer" class="shp3" d="M310.72 602.65L365.85 602.65L365.85 676.64L310.72 676.64L310.72 602.65Z" />
				<path id="Layer" class="shp4" d="M431.01 815.54L452.98 815.54L409.91 714.8C411.18 713.16 411.95 711.11 411.95 708.88L411.95 685.15C411.95 679.8 407.62 675.47 402.27 675.47L274.31 675.47C268.96 675.47 264.63 679.8 264.63 685.15L264.63 708.88C264.63 711.22 265.46 713.36 266.84 715.03L223.87 815.54L242.44 815.26L287.29 718.56L328.21 718.56L328.21 849.3L346.36 849.3L346.36 718.55L389.55 718.55L431.01 815.54Z" />
				<path id="Layer" class="shp5" d="M352.87 652.34C352.87 661.12 345.75 668.24 336.97 668.24C328.19 668.24 321.07 661.12 321.07 652.34C321.07 643.56 328.19 636.44 336.97 636.44C345.76 636.44 352.87 643.56 352.87 652.34Z" />
				<path id="Layer" class="shp6" d="M349.03 652.34C349.03 659 343.64 664.4 336.98 664.4C330.32 664.4 324.92 659 324.92 652.34C324.92 645.68 330.32 640.28 336.98 640.28C343.63 640.28 349.03 645.68 349.03 652.34Z" />
			</g>
			<g id="Layer">
				<g id="Layer">
					<path id="Layer" class="shp5" d="M442.77 468.1L231.62 639.65L481.07 569.8L442.77 468.1Z" />
					<path id="Layer" class="shp7" d="M438.95 457.96L195.5 578.94L219.63 643L231.62 639.65L442.77 468.1L438.95 457.96Z" />
				</g>
				<path id="Layer" class="shp8" d="M105.71 629.33L200.98 593.44L212.26 623.38L116.99 659.26L105.71 629.33Z" />
				<path id="Layer" class="shp8" d="M127.53 663.39C128.84 666.87 127.08 670.76 123.6 672.06L115.72 675.03C112.24 676.34 108.35 674.58 107.04 671.1L90.72 627.78C89.41 624.3 91.17 620.42 94.65 619.1L102.53 616.13C106.01 614.82 109.89 616.58 111.2 620.06L127.53 663.39Z" />
				<path id="Layer" class="shp9" d="M455.08 454.87L447.58 457.7L487.14 562.73L494.64 559.9C508.84 554.55 516.02 538.7 510.67 524.49L490.49 470.91C485.14 456.7 469.28 449.52 455.08 454.87Z" />
				<g id="Layer">
					<path id="Layer" class="shp10" d="M487.13 562.72L449.45 462.67L442.77 468.1L432.24 476.66L466.3 567.07L473.59 586.41C474.9 589.89 478.78 591.65 482.26 590.34L489.35 587.67C492.83 586.36 494.59 582.48 493.28 579L487.13 562.72Z" />
					<path id="Layer" class="shp8" d="M449.45 462.67L447.58 457.7L442.24 443.53C440.93 440.05 437.04 438.29 433.56 439.6L426.47 442.27C422.99 443.58 421.23 447.46 422.54 450.95L429.03 468.19L432.22 476.66L442.75 468.1L449.45 462.67Z" />
				</g>
			</g>
		</g>
		<g id="Comet">
			<g id="Layer">
				<path id="Layer" class="shp5" d="M205.98 191.4C208.33 194.83 179.48 239.92 154.96 256.71C130.44 273.5 119.46 257.71 115.95 253.04C113.58 249.88 102.47 232.66 126.99 215.87C151.51 199.09 202.49 186.31 205.98 191.4Z" />
				<path id="Layer" class="shp11" d="M184.16 205.93C185.8 208.32 165.69 239.74 148.61 251.44C131.52 263.14 123.87 252.13 121.43 248.89C119.78 246.69 112.04 234.69 129.12 222.99C146.21 211.29 181.73 202.38 184.16 205.93Z" />
				<path id="Layer" class="shp12" d="M147.29 231.59C152.35 238.98 150.46 249.07 143.07 254.13C135.68 259.19 125.59 257.3 120.53 249.91C115.47 242.52 117.36 232.43 124.75 227.37C132.14 222.31 142.23 224.2 147.29 231.59Z" />
			</g>
			<g id="Layer">
				<path id="Layer" class="shp5" d="M920.81 299.18C922.84 302.15 897.9 341.14 876.7 355.65C855.5 370.17 846.01 356.51 842.97 352.48C840.92 349.75 831.32 334.86 852.52 320.34C873.72 305.82 917.8 294.78 920.81 299.18Z" />
				<path id="Layer" class="shp11" d="M901.94 311.74C903.36 313.81 885.97 340.98 871.2 351.09C856.43 361.21 849.81 351.69 847.7 348.88C846.27 346.98 839.58 336.6 854.35 326.48C869.13 316.38 899.84 308.68 901.94 311.74Z" />
				<path id="Layer" class="shp12" d="M870.07 333.93C874.44 340.32 872.81 349.05 866.42 353.42C860.03 357.8 851.3 356.16 846.93 349.77C842.55 343.38 844.19 334.65 850.58 330.28C856.97 325.9 865.69 327.54 870.07 333.93Z" />
			</g>
		</g>
		<g id="Stars">
			<path id="Layer" class="shp13" d="M790.59 734.28C789.12 734.41 789.97 717.97 786.93 714.92C783.9 711.88 767.46 712.69 767.58 711.24C767.69 709.93 783.09 708.88 786.21 705.77C789.33 702.66 790.46 687.26 791.79 687.16C793.23 687.06 793.07 702.94 796 705.89C798.93 708.84 814.79 708.62 814.72 710C814.66 711.38 798.89 712.12 795.7 715.3C792.52 718.47 791.89 734.16 790.59 734.28Z" />
			<path id="Layer" class="shp13" d="M752.32 705.4C751.18 705.5 751.84 692.67 749.47 690.29C747.1 687.91 734.27 688.55 734.37 687.42C734.46 686.39 746.47 685.58 748.91 683.15C751.34 680.72 752.23 668.7 753.26 668.62C754.38 668.54 754.26 680.94 756.55 683.24C758.84 685.54 771.21 685.37 771.16 686.45C771.11 687.53 758.8 688.11 756.31 690.58C753.82 693.06 753.34 705.31 752.32 705.4Z" />
			<path id="Layer" class="shp13" d="M819.82 228.51C818.33 228.64 819.19 211.98 816.12 208.89C813.04 205.8 796.39 206.63 796.51 205.16C796.62 203.83 812.23 202.77 815.39 199.62C818.55 196.47 819.7 180.85 821.04 180.76C822.5 180.65 822.33 196.75 825.31 199.74C828.29 202.73 844.35 202.5 844.29 203.9C844.23 205.3 828.24 206.05 825.01 209.27C821.77 212.48 821.14 228.39 819.82 228.51Z" />
			<path id="Layer" class="shp13" d="M781.73 233.48C780.83 233.56 781.35 223.49 779.49 221.63C777.63 219.77 767.57 220.27 767.64 219.38C767.71 218.58 777.14 217.94 779.05 216.03C780.96 214.13 781.65 204.69 782.46 204.63C783.34 204.57 783.24 214.29 785.04 216.1C786.84 217.9 796.54 217.77 796.5 218.62C796.46 219.47 786.81 219.92 784.85 221.86C782.91 223.8 782.53 233.41 781.73 233.48Z" />
			<path id="Layer" class="shp13" d="M537.2 606.81C536.01 606.92 536.7 593.56 534.23 591.09C531.76 588.62 518.41 589.28 518.51 588.1C518.6 587.03 531.11 586.18 533.64 583.66C536.17 581.14 537.09 568.62 538.17 568.54C539.34 568.45 539.21 581.36 541.59 583.75C543.98 586.14 556.85 585.97 556.8 587.09C556.75 588.21 543.94 588.81 541.35 591.39C538.76 593.97 538.25 606.71 537.2 606.81Z" />
			<path id="Layer" class="shp13" d="M140.04 493.14C137.97 493.32 139.16 470.07 134.87 465.76C130.58 461.46 107.34 462.61 107.51 460.55C107.66 458.69 129.44 457.21 133.85 452.82C138.26 448.43 139.86 426.64 141.74 426.5C143.78 426.35 143.54 448.82 147.69 452.98C151.84 457.15 174.26 456.84 174.17 458.79C174.08 460.74 151.78 461.79 147.28 466.28C142.76 470.78 141.88 492.97 140.04 493.14Z" />
			<path id="Layer" class="shp13" d="M315.14 267.09C313.5 267.24 314.44 248.86 311.05 245.45C307.66 242.05 289.28 242.96 289.42 241.33C289.54 239.86 306.76 238.69 310.24 235.22C313.73 231.75 314.99 214.52 316.47 214.41C318.08 214.29 317.9 232.05 321.18 235.35C324.46 238.64 342.18 238.4 342.11 239.94C342.04 241.48 324.41 242.31 320.85 245.86C317.29 249.41 316.6 266.96 315.14 267.09Z" />
		</g>
	</g>
</svg>