<svg xmlns="http://www.w3.org/2000/svg" viewBox="0 0 512 512" width="512" height="512">
	<style>
		tspan { white-space:pre }
		.shp0 { fill: #323653 } 
		.shp1 { opacity: 0.102;fill: #000000 } 
		.shp2 { fill: #e3dff0 } 
		.shp3 { fill: #70738b } 
		.shp4 { fill: #fec35a } 
		.shp5 { fill: #c9c3e6 } 
		.shp6 { fill: #b1bde1 } 
		.shp7 { fill: #d7d7d7 } 
		.shp8 { fill: #3d4795 } 
		.shp9 { fill: #904548 } 
		.shp10 { fill: #fcaf17 } 
		.shp11 { fill: #f15a27 } 
		.shp12 { fill: #bf5d62 } 
	</style>
	<path id="Background" class="shp0" d="M256 511.93C114.47 511.93 0.07 397.53 0.07 256C0.07 114.47 114.47 0.07 256 0.07C397.53 0.07 511.93 114.47 511.93 256C511.93 397.53 397.53 511.93 256 511.93Z" />
	<path id="Shadow" class="shp1" d="M507.67 209.33L379.4 82.48L208.65 292.33L133.15 328.86L122.71 370.14L165 405.42L137.97 439.08L205.89 507C330.32 532 456.89 461.2 498.52 337.77C512.97 294.89 515.41 250.87 507.67 209.33Z" />
	<g id="Star_1_">
		<g id="Layer">
			<path id="Layer" class="shp2" d="M187.05 86.57C180.92 88.86 173.94 86.09 171.47 80.4C169 74.7 171.97 68.22 178.11 65.93C184.25 63.64 191.23 66.4 193.69 72.1C196.16 77.8 193.19 84.28 187.05 86.57Z" />
			<path id="Layer" class="shp2" d="M208.65 66.52L181.63 74.05L156.51 85.98L183.54 78.45L208.65 66.52Z" />
			<path id="Layer" class="shp2" d="M172.1 52.04L180.21 77.13L193.07 100.45L184.95 75.36L172.1 52.04Z" />
		</g>
		<g id="Layer">
			<path id="Layer" class="shp2" d="M31.89 342.44C29.55 343.31 26.89 342.26 25.95 340.09C25.01 337.92 26.14 335.45 28.48 334.58C30.82 333.7 33.48 334.76 34.42 336.93C35.36 339.1 34.23 341.57 31.89 342.44Z" />
			<path id="Layer" class="shp2" d="M40.12 334.8L29.82 337.67L20.25 342.22L30.55 339.35L40.12 334.8Z" />
			<path id="Layer" class="shp2" d="M26.19 329.29L29.28 338.85L34.18 347.73L31.09 338.17L26.19 329.29Z" />
		</g>
		<g id="Star">
			<path id="Layer" class="shp2" d="M360.81 153.3C357.33 154.6 353.36 153.03 351.96 149.8C350.55 146.56 352.25 142.88 355.73 141.58C359.22 140.27 363.19 141.84 364.59 145.08C365.99 148.32 364.3 152 360.81 153.3Z" />
			<path id="Layer" class="shp2" d="M373.09 141.91L357.73 146.19L343.46 152.97L358.81 148.69L373.09 141.91Z" />
			<path id="Layer" class="shp2" d="M352.31 133.68L356.92 147.94L364.23 161.19L359.62 146.94L352.31 133.68Z" />
		</g>
	</g>
	<g id="Star_2_">
		<g id="Layer">
			<path id="Layer" class="shp2" d="M381.27 302.74C377.75 304.22 373.73 302.44 372.31 298.77C370.9 295.1 372.61 290.92 376.13 289.45C379.66 287.97 383.68 289.75 385.09 293.42C386.51 297.09 384.8 301.27 381.27 302.74Z" />
			<path id="Layer" class="shp2" d="M393.7 289.82L378.15 294.67L363.71 302.37L379.25 297.51L393.7 289.82Z" />
			<path id="Layer" class="shp2" d="M372.68 280.49L377.34 296.66L384.73 311.69L380.07 295.52L372.68 280.49Z" />
		</g>
		<g id="Layer">
			<path id="Layer" class="shp2" d="M292.06 467.63C290.71 468.19 289.19 467.51 288.64 466.12C288.1 464.72 288.76 463.13 290.1 462.57C291.44 462 292.97 462.68 293.51 464.08C294.05 465.48 293.4 467.07 292.06 467.63Z" />
			<path id="Layer" class="shp2" d="M296.79 462.71L290.87 464.56L285.37 467.49L291.29 465.64L296.79 462.71Z" />
			<path id="Layer" class="shp2" d="M288.78 459.15L290.56 465.31L293.38 471.04L291.6 464.88L288.78 459.15Z" />
		</g>
		<g id="Star_3_">
			<path id="Layer" class="shp2" d="M481.19 345.75C479.18 346.59 476.9 345.57 476.09 343.49C475.29 341.4 476.26 339.03 478.26 338.19C480.27 337.35 482.55 338.36 483.36 340.45C484.16 342.54 483.19 344.91 481.19 345.75Z" />
			<path id="Layer" class="shp2" d="M488.25 338.4L479.41 341.16L471.21 345.53L480.04 342.77L488.25 338.4Z" />
			<path id="Layer" class="shp2" d="M476.3 333.1L478.95 342.29L483.15 350.83L480.5 341.64L476.3 333.1Z" />
		</g>
	</g>
	<g id="Rocket_1_">
		<path id="Layer" class="shp3" d="M327.23 249.21C275.32 325.6 214.52 374.81 191.42 359.12C168.33 343.43 191.69 268.77 243.59 192.38C295.5 115.99 366.33 73.6 379.4 82.48C391.46 90.68 379.13 172.82 327.23 249.21Z" />
		<path id="Layer" class="shp4" d="M367.51 171.18C384.74 124.84 387.28 87.84 379.4 82.48C370.85 76.67 337.58 92.81 301.07 126.04L367.51 171.18Z" />
		<path id="Layer" class="shp4" d="M288.08 138.48L360.81 187.89C362.48 184 364.06 180.14 365.54 176.35L297.02 129.79C294.05 132.57 291.06 135.47 288.08 138.48Z" />
		<path id="Layer" class="shp5" d="M282.05 259.51C263.24 259.51 248.02 244.3 248.02 225.48C248.02 206.66 263.24 191.45 282.05 191.45C300.87 191.45 316.08 206.66 316.08 225.48C316.08 244.3 300.87 259.51 282.05 259.51Z" />
		<path id="Layer" class="shp6" d="M282.06 255.62C265.39 255.62 251.92 242.15 251.92 225.48C251.92 208.81 265.39 195.34 282.06 195.34C298.72 195.34 312.2 208.81 312.2 225.48C312.2 242.15 298.72 255.62 282.06 255.62Z" />
		<path id="Layer" class="shp4" d="M192.33 289.7C180.06 324.25 178.78 350.52 191.42 359.12C204.07 367.71 228.02 356.84 255.63 332.71L192.33 289.7Z" />
		<path id="Layer" class="shp7" d="M183.52 323.19L174.41 356.48L200.55 374.24L228.14 353.52L183.52 323.19Z" />
		<g id="Layer">
			<path id="Layer" class="shp8" d="M241.75 402.25L239.02 344.85L253.13 334.32L255.87 391.72L241.75 402.25Z" />
			<path id="Layer" class="shp8" d="M224.61 415.04L221.87 357.64L235.99 347.11L238.72 404.5L224.61 415.04Z" />
			<path id="Layer" class="shp8" d="M207.63 427.7L204.89 370.31L219.01 359.78L221.75 417.17L207.63 427.7Z" />
		</g>
		<g id="Layer">
			<path id="Layer" class="shp8" d="M133.15 328.86L187.21 309.4L191.53 292.33L137.47 311.79L133.15 328.86Z" />
			<path id="Layer" class="shp8" d="M127.91 349.6L181.97 330.14L186.29 313.06L132.22 332.53L127.91 349.6Z" />
			<path id="Layer" class="shp8" d="M122.71 370.14L176.78 350.68L181.09 333.6L127.03 353.06L122.71 370.14Z" />
		</g>
		<path id="Layer" class="shp9" d="M200.38 344.67L201.59 345.49L193.3 357.67L192.09 356.85L200.38 344.67Z" />
		<path id="Layer" class="shp9" d="M189.27 361L190.47 361.82L179.36 378.17L178.16 377.35L189.27 361Z" />
		<path id="Layer" class="shp9" d="M176.27 380.16L177.47 380.98L168.56 394.1L167.35 393.28L176.27 380.16Z" />
		<path id="Layer" class="shp10" d="M182.31 372.53C199.12 384.12 192.46 398.52 190.46 401.47C188.46 404.42 176.87 418.1 177.55 422.87C171.75 418.15 173.43 405.77 178.72 402.02C171.89 406.88 176.36 424.61 152.25 437.03C152.26 431.94 159.5 420.8 161.14 418.38C159.5 420.8 143.25 431.3 137.97 439.08C134.53 433.61 139.39 412.62 148.1 404.43C156.8 396.23 151.75 400.37 154.33 397.73C148.13 401.67 141.51 406.62 141.04 409.04C139.74 404.62 153.49 352.66 182.31 372.53Z" />
		<path id="Layer" class="shp11" d="M178.41 379.57C194.22 388.36 166.68 413.92 153.65 417.41C151.35 404.68 159.42 369.02 178.41 379.57Z" />
		<path id="Layer" class="shp12" d="M223.02 311.27L224.22 312.09L168.09 394.81L166.89 393.99L223.02 311.27Z" />
		<path id="Layer" class="shp1" d="M379.4 82.48C379.2 82.34 378.99 82.22 378.76 82.11L190.84 358.68C191.03 358.83 187.27 365.23 187.27 365.23C187.27 365.23 193.9 369.52 200.55 374.24C251.47 335.56 269.59 331.05 327.23 249.21C377.43 177.92 391.46 90.68 379.4 82.48Z" />
	</g>
</svg>